<?xml version="1.0" encoding="utf-8"?>
<!-- Generator: Adobe Illustrator 15.1.0, SVG Export Plug-In  -->
<!DOCTYPE svg PUBLIC "-//W3C//DTD SVG 1.1//EN" "http://www.w3.org/Graphics/SVG/1.1/DTD/svg11.dtd" [
	<!ENTITY ns_flows "http://ns.adobe.com/Flows/1.0/">
]>
<svg version="1.1"
	 xmlns="http://www.w3.org/2000/svg" xmlns:xlink="http://www.w3.org/1999/xlink" xmlns:a="http://ns.adobe.com/AdobeSVGViewerExtensions/3.0/"
	 x="0px" y="0px" width="609px" height="708px" viewBox="-21.688 44.145 609 708"
	 overflow="visible" enable-background="new -21.688 44.145 609 708" xml:space="preserve">
<defs>
</defs>
<g>
	<defs>
		<rect id="SVGID_1_" width="627.312" height="721.263"/>
	</defs>
	<clipPath id="SVGID_2_">
		<use xlink:href="#SVGID_1_"  overflow="visible"/>
	</clipPath>
	<path clip-path="url(#SVGID_2_)" fill="#02354A" d="M135.687,396.885c-15.276,0-27.704-12.432-27.704-27.71
		c0-15.277,12.428-27.706,27.704-27.706c15.279,0,27.708,12.429,27.708,27.706C163.394,384.453,150.965,396.885,135.687,396.885
		 M135.687,299.02c-38.683,0-70.152,31.471-70.152,70.155c0,38.686,31.47,70.159,70.152,70.159
		c38.685,0,70.156-31.474,70.156-70.159C205.843,330.491,174.371,299.02,135.687,299.02"/>
	<path clip-path="url(#SVGID_2_)" fill="#5CBED7" d="M516.226,462.285c-51.557,0-93.5-41.948-93.5-93.508s41.943-93.504,93.5-93.504
		c51.559,0,93.505,41.944,93.505,93.504S567.784,462.285,516.226,462.285 M135.685,487.285c-65.123,0-118.104-52.984-118.104-118.11
		c0-65.125,52.98-118.108,118.104-118.108c65.127,0,118.111,52.984,118.111,118.108C253.796,434.3,200.812,487.285,135.685,487.285
		 M380.9,523.46c49.689,0,90.11,40.424,90.11,90.108c0,49.688-40.421,90.111-90.11,90.111c-49.682,0-90.104-40.424-90.104-90.111
		C290.797,563.884,331.219,523.46,380.9,523.46 M291.707,114.479c0-53.428,43.469-96.896,96.896-96.896
		c53.432,0,96.901,43.468,96.901,96.896c0,53.434-43.47,96.903-96.901,96.903C335.176,211.382,291.707,167.913,291.707,114.479
		 M516.226,258.293c-57.176,0-104.343,43.661-109.924,99.393H270.253c-2.573-30.369-15.198-57.917-34.578-79.252l78.163-78.164
		c20.021,17.472,46.168,28.092,74.765,28.092c62.794,0,113.881-51.088,113.881-113.884c0-62.792-51.087-113.878-113.881-113.878
		c-62.791,0-113.875,51.085-113.875,113.878c0,28.099,10.249,53.831,27.176,73.715l-78.431,78.431
		c-23.631-20.258-54.293-32.539-87.788-32.539c-74.484,0-135.083,60.6-135.083,135.088c0,74.49,60.598,135.091,135.083,135.091
		c34.431,0,65.876-12.966,89.758-34.245l74.071,74.07c-16,18.717-25.696,42.979-25.696,69.479
		c0,59.052,48.038,107.091,107.083,107.091c59.05,0,107.091-48.039,107.091-107.091c0-59.049-48.041-107.087-107.091-107.087
		c-26.448,0-50.671,9.659-69.375,25.609l-74.142-74.144c19.641-22.473,31.973-51.47,33.251-83.282h135.272
		c3.07,58.196,51.375,104.598,110.318,104.598c60.922,0,110.485-49.563,110.485-110.486
		C626.711,307.855,577.147,258.293,516.226,258.293"/>
	<path clip-path="url(#SVGID_2_)" fill="none" stroke="#00ABE3" d="M516.226,462.285c-51.557,0-93.5-41.948-93.5-93.508
		s41.943-93.504,93.5-93.504c51.559,0,93.505,41.944,93.505,93.504S567.784,462.285,516.226,462.285z M135.685,487.285
		c-65.123,0-118.104-52.984-118.104-118.11c0-65.125,52.98-118.108,118.104-118.108c65.127,0,118.111,52.984,118.111,118.108
		C253.796,434.3,200.812,487.285,135.685,487.285z M380.9,523.46c49.689,0,90.11,40.424,90.11,90.108
		c0,49.688-40.421,90.111-90.11,90.111c-49.682,0-90.104-40.424-90.104-90.111C290.797,563.884,331.219,523.46,380.9,523.46z
		 M291.707,114.479c0-53.428,43.469-96.896,96.896-96.896c53.432,0,96.901,43.468,96.901,96.896
		c0,53.434-43.47,96.903-96.901,96.903C335.176,211.382,291.707,167.913,291.707,114.479z M516.226,258.293
		c-57.176,0-104.343,43.661-109.924,99.393H270.253c-2.573-30.369-15.198-57.917-34.578-79.252l78.163-78.164
		c20.021,17.472,46.168,28.092,74.765,28.092c62.794,0,113.881-51.088,113.881-113.884c0-62.792-51.087-113.878-113.881-113.878
		c-62.791,0-113.875,51.085-113.875,113.878c0,28.099,10.249,53.831,27.176,73.715l-78.431,78.431
		c-23.631-20.258-54.293-32.539-87.788-32.539c-74.484,0-135.083,60.6-135.083,135.088c0,74.49,60.598,135.091,135.083,135.091
		c34.431,0,65.876-12.966,89.758-34.245l74.071,74.07c-16,18.717-25.696,42.979-25.696,69.479
		c0,59.052,48.038,107.091,107.083,107.091c59.05,0,107.091-48.039,107.091-107.091c0-59.049-48.041-107.087-107.091-107.087
		c-26.448,0-50.671,9.659-69.375,25.609l-74.142-74.144c19.641-22.473,31.973-51.47,33.251-83.282h135.272
		c3.07,58.196,51.375,104.598,110.318,104.598c60.922,0,110.485-49.563,110.485-110.486
		C626.711,307.855,577.147,258.293,516.226,258.293z"/>
	<path clip-path="url(#SVGID_2_)" fill="#02354A" d="M393.25,137.449c-10.578,0-21.803-3.098-31.607-10.582l-16.125,19.225
		c11.48,10.061,27.994,15.224,46.313,15.224c24.254,0,39.863-11.609,39.863-30.576v-0.26c0-18.188-15.48-24.897-38.571-29.157
		c-9.549-1.804-12-3.355-12-5.805V95.26c0-2.194,2.066-3.741,6.582-3.741c8.384,0,18.575,2.708,27.092,8.901l14.707-20.386
		c-10.449-8.254-23.353-12.383-40.77-12.383c-24.898,0-38.316,13.289-38.316,30.448v0.256c0,19.096,17.806,24.901,38.059,29.029
		c9.677,1.936,12.513,3.355,12.513,5.935v0.257C400.989,136.028,398.669,137.449,393.25,137.449"/>
	<path clip-path="url(#SVGID_2_)" fill="#02354A" d="M527.812,383.894c0,3.715-3.222,6.319-9.54,6.319h-14.497v-12.887h14.622
		c6.317,0,9.415,2.603,9.415,6.321V383.894z M503.774,347.348h12.517c6.193,0,9.289,2.104,9.289,5.945v0.25
		c0,3.841-2.971,5.946-9.167,5.946h-12.639V347.348z M538.59,366.799c9.292-3.224,15.484-9.541,15.484-19.824v-0.245
		c0-5.95-2.229-10.407-5.325-13.506c-5.081-5.078-12.638-7.804-24.655-7.804H475.53v86.72h48.067
		c21.931,0,33.327-10.156,33.327-24.034v-0.244C556.925,375.967,549.737,370.02,538.59,366.799"/>
</g>
<polygon fill="#02354A" points="367.641,616.604 396.864,652.915 420.246,652.915 420.246,574.229 394.169,574.229 394.169,608.962 
	366.179,574.229 341.562,574.229 341.562,652.915 367.641,652.915 "/>
</svg>
