<?xml version="1.0" encoding="utf-8"?>
<!-- Generator: Adobe Illustrator 15.1.0, SVG Export Plug-In . SVG Version: 6.00 Build 0)  -->
<!DOCTYPE svg PUBLIC "-//W3C//DTD SVG 1.1//EN" "http://www.w3.org/Graphics/SVG/1.1/DTD/svg11.dtd">
<svg version="1.1" id="Layer_1" xmlns="http://www.w3.org/2000/svg" xmlns:xlink="http://www.w3.org/1999/xlink" x="0px" y="0px"
	 width="2592px" height="1728px" viewBox="0 0 2592 1728" enable-background="new 0 0 2592 1728" xml:space="preserve">
<g>
	<g>
		<g>
			<g>
				<path fill="#5CBED7" d="M2538.6,530.1l-91.5,9.102l0,0l-97.6,3l-97.6,7.6l-97.601,4.6l-97.601,3l-97.601,7.6l-97.6,6.1
					l-97.601,3l-97.601,4.602l-97.6,9.1l-97.601,4.601l-97.601,6.101l-97.6,4.6l-97.602,7.601l0,0l-96.1,1.5l0,0L985,620l-97.6,6.1
					l-97.602,1.5l0,0l-97.6,7.602l-97.602,3l-97.6,6.1l-97.6,7.602l0,0l-97.601,1.5l0,0l-97.6,7.6l-96.1,4.6l-93,6.102
					c-3,0-4.6,3-4.6,4.6v9.101c0,3,3,4.601,4.6,4.601l93-7.601l97.6-4.601l97.6-7.6l0,0l97.601-1.5l0,0l97.6-9.102l0,0l97.6-3
					L693.7,652l97.6-9.1l0,0l97.602-1.5l0,0l97.6-7.602l97.6-7.6l97.602-3l97.6-6.102l97.601-7.6l97.601-3l0,0l97.6-7.6l97.602-3
					l97.6-7.602l97.601-4.6l97.601-4.602l97.6-6.1l97.602-4.6l97.6-4.602l97.602-4.6l97.6-7.601l93-6.101c3,0,4.602-1.5,4.602-4.6
					v-7.601C2544.7,531.6,2541.7,528.6,2538.6,530.1z"/>
			</g>
			<g>
				<path fill="#5CBED7" d="M0,1170.5v6.1c0,4.602,4.6,7.602,7.6,7.602l90-6.102l97.6-6.1l97.6-3l0,0l97.602-9.1l97.6-6.102
					l97.6-6.1l97.602-3l97.6-7.602l97.602-3l97.6-7.6l97.601-6.1l97.601-3l97.6-3l0,0l96.101-9.102l0,0l97.601-3l0,0l97.6-7.6
					l97.601-6.1L1755.3,1084l97.601-3l97.601-3l97.601-7.6l97.6-3l97.602-7.601l97.601-4.601l97.601-3l90-6.1c4.6,0,7.6-3,7.6-7.602
					v-4.6c0-4.601-3-7.601-7.6-7.601l-90,3l-97.601,6.101l-97.601,4.6l-97.602,7.602l-97.6,6.1l-97.601,6.101l-97.601,7.601
					l-97.601,3l-97.601,7.6l-97.6,4.601l-97.601,3l-97.601,7.601l0,0H1267l-97.6,6.1l-97.602,9.102l-97.6,4.6l-97.602,6.1
					L779,1123.7l-97.6,4.6l-97.602,3l0,0l-96.1,7.601l-97.601,4.601l-97.601,3l0,0l-97.6,7.6l-97.6,3l-90,4.602
					C3,1162.8,0,1165.9,0,1170.5z"/>
			</g>
		</g>
		<path fill="#5CBED7" d="M289.7,1042.4l6.1-38.102l7.6-35.1l12.2-71.7l7.602-39.6l6.1-35.102l0,0l3-39.6l0,0l4.602-21.3
			c1.5-4.602-3-9.102-7.602-7.602l-22.898,1.5c-3,0-6.101,3-6.101,6.102l-4.6,24.398l0,0l-3,36.602l0,0l-12.2,71.699l-4.6,36.601
			l0,0l-7.6,35.1l0,0l-9.1,38.102h-1.5L247,967.7l0,0l-7.6-35.102l-7.6-36.6l-9.1-36.6l0,0l-4.6-33.5l-3-38.102l0,0l-4.6-22.898
			c0-3-4.6-6.102-7.6-6.102l-24.4,3c-3,0-6.1,3-6.1,6.102l-4.6,25.898l0,0l-3,36.602l0,0l-6.1,33.5l0,0l-9.1,73.198l0,0l-16.8,74.7
			h-1.5l-10.7-38.1l0,0l-6.1-35.101l0,0l-3-35.101c0,0,0,0,0-1.5l-9.1-35.1c0,0,0,0,0-1.5L97.8,830.3l0,0l-6.1-35.1l0,0L90,772.5
			c0-3-3-6.1-7.6-6.1l-22.9,1.5c-4.6,0-7.6,4.6-6.1,7.6l4.6,22.9l10.7,77.8l0,0l7.6,35.1v1.5v33.5c0,0,0,0,0,1.5l6.1,33.5l0,0
			L90,1016.4l0,0l3,35.1c0,0,0,0,0,1.5l6.1,24.4c0,3,3,6.1,7.6,6.1l24.4-1.5l0,0l24.4-3c3,0,4.6-3,6.1-4.6l6.1-22.9c0,0,0,0,0-1.5
			l4.6-33.5l4.6-35.1c0,0,0,0,0-1.5l7.6-33.5l10.7-36.602h1.5l12.2,44.2l0,0l7.6,41.2l7.6,42.7l4.6,29c0,3,3,6.1,6.1,6.1h21.3h1.5
			l22.9-3c3,0,4.6-3,6.1-6.1L289.7,1042.4z"/>
		<path fill="#5CBED7" d="M480.3,1062.2l19.8-3c3,0,6.102-3,6.102-7.602v-19.8c0-4.6-4.602-7.6-9.102-7.6l-24.398,4.6l0,0H434.6
			c-4.6,0-7.6-3-7.6-7.6l-3-44.2c0,0,0,0,0-1.5l1.5-47.3c0-4.602,3-7.602,7.6-7.602l35.102,1.5h1.5l21.3-3c3,0,6.1-3,6.1-7.6
			l1.5-18.3c0-4.602-3-7.602-7.6-7.602l-19.8,1.5l-35.102,1.5c-4.6,0-7.6-3-7.6-7.6v-47.3l0,0L430,788c0-4.6,3-7.6,7.6-7.6l38.102-3
			l0,0l27.398-3c3,0,6.102-3,6.102-7.602v-18.3c0-4.6-3-7.6-7.602-7.6h-18.3l0,0l-67.1,6.1l0,0h-18.3c-4.602,0-7.602,3-7.602,7.6
			V775.9v36.6l-1.5,36.6V885.7l0,0l3,36.6c0,0,0,0,0,1.5l-3,36.602c0,0,0,0,0,1.5l1.5,36.6l0,0l-1.5,36.6c0,0,0,0,0,1.5l1.5,21.302
			c0,4.6,4.602,7.6,7.602,7.6l19.8-1.5l33.5-3c0,0,0,0,1.5,0L480.3,1062.2C478.8,1062.2,478.8,1062.2,480.3,1062.2z"/>
		<path fill="#5CBED7" d="M1224.3,806.1l-3-35.1v-1.5l3-35.1c0,0,0,0,0-1.5V714.6c0-6.1-6.1-10.698-12.2-10.698l-13.698,1.5
			c-6.102,0-9.102,6.1-9.102,10.698V737.4c0,0,0,0,0,1.5l-1.5,38.1v38.1l0,0l-3,38.102l-3,41.2h-1.5l-15.198-39.602l0,0l-10.7-36.6
			l-9.101-38.102l0,0L1137.7,742v-1.5l-9.101-22.9c-1.5-4.6-6.101-6.1-9.101-6.1H1096.6c-6.101,0-10.699,4.6-10.699,10.7v21.3v36.6
			l-3,35.102v36.6l1.5,36.602l1.5,36.6v1.5l-3,35.1v1.5l3,35.102v1.5l1.5,16.8c0,6.1,4.6,12.2,10.699,10.7h12.2
			c6.101,0,10.699-4.602,10.699-10.7l-1.5-19.8l0,0l1.5-36.602v-36.6l-1.5-36.6c0,0,0,0,0-1.5l3-38.102h1.5l15.2,41.2l13.699,32
			c0,0,0,0,0,1.5l10.699,35.1l0,0l7.602,35.102c0,0,0,0,0,1.5l7.6,21.3c1.5,4.6,6.101,7.6,10.7,7.6l21.3-1.5
			c6.101,0,10.7-4.6,10.7-10.699l-1.5-18.301c0,0,0,0,0-1.5l1.5-36.6v-73.2c0,0,0,0,0-1.5l3-36.6l0,0L1224.3,806.1
			C1224.3,807.6,1224.3,807.6,1224.3,806.1z"/>
		<path fill="#5CBED7" d="M1289.9,722.2v-27.4c0-4.6-3-7.6-7.602-7.6l-24.398,1.5c-4.602,0-6.102,3-6.102,7.6v21.3
			c0,4.602,3,7.602,7.602,7.602h7.6c1.5,0,3,1.5,1.5,3l-6.1,39.6c-1.5,4.602,3,9.102,7.6,9.102l0,0c3,0,6.1-3,6.1-4.602l6.102-18.3
			l7.6-27.4C1288.4,723.7,1289.9,723.7,1289.9,722.2z"/>
		<path fill="#5CBED7" d="M1453,691.7c0-3-1.5-4.602-4.6-4.602h-25.9l-36.6,1.5l0,0L1349.3,693.2l0,0l-25.898,1.5
			c-3,0-4.602,1.5-4.602,4.6l-1.5,24.4c0,3,3,6.1,4.602,4.6l38.1-3c3,0,4.6,1.5,4.6,4.602l1.5,41.198l1.5,41.2l0,0l-3,39.602l0,0
			l-1.5,42.698l0,0l1.5,41.2l0,0l-1.5,39.602l0,0l1.5,27.398c0,3,3,4.602,4.602,4.602h30.5c3,0,4.6-1.5,4.6-4.602v-30.5l0,0
			l-1.5-39.6l0,0v-41.2l0,0l4.601-39.6c0,0,0,0,0-1.5L1402.8,810.8l0,0l3-39.6l0,0l-1.5-41.2c0-3,1.5-4.6,4.602-4.6l38.1-3
			c3,0,4.6-3,4.6-4.602L1453,691.7z"/>
		<path fill="#5CBED7" d="M2122.4,897.5l-6.102-38.1l0,0l-3-33.5v-1.5l-9.102-33.5c0,0,0,0,0-1.5l-6.1-35.102l-3-35.1l0,0l-9.1-56.4
			c0-4.6-4.602-7.6-9.102-6.1l-22.898,3l0,0h-24.4c-4.6,0-7.6,3-7.6,6.1l-4.602,24.4l0,0l-3,36.6l-4.6,36.602l-6.102,36.6
			l-15.198,71.7l-7.602,38.1l0,0l-6.1,39.602l-3,22.898c0,4.602,3,9.102,9.1,9.102l22.9-3c3,0,6.1-3,7.6-7.602l3-22.898l0,0
			l6.102-36.602c0-3,3-6.1,7.6-6.1l53.399-1.5c4.601,0,7.601,3,7.601,6.1l4.601,35.102l3,19.8c0,4.6,4.601,6.1,7.601,6.1l21.3-1.5
			c4.602,0,7.602-4.6,7.602-9.1l-3-21.3L2122.4,897.5z M2023.3,862.5l4.602-36.6l0,0l6.1-35.102l6.1-33.5l0,0l9.102-33.5
			c0-1.5,1.5-1.5,3-1.5l0,0c1.5,0,3,1.5,3,1.5l10.7,33.5v1.5l3,33.5l4.6,33.5l6.1,33.5c0,4.602-3,9.102-7.6,9.102l-39.6,3
			C2026.3,871.6,2023.3,867,2023.3,862.5z"/>
		<path fill="#5CBED7" d="M2480.7,641.4c0-4.602-4.602-9.102-9.102-9.102l-19.8,1.5l-36.602,3l-38.1,3l0,0h-21.3
			c-4.602,0-9.102,4.602-9.102,9.102V664.1c0,4.602,4.602,9.102,9.102,9.102l36.6-1.5c1.5,0,3,1.5,3,3v44.2l1.5,39.6c0,0,0,0,0,1.5
			l-4.6,80.8l0,0l1.5,80.8l0,0V946c0,6.1,4.6,9.1,9.1,9.1l21.3-1.5c4.602,0,9.102-4.6,9.102-9.1v-25.9l0,0l3-39.6v-1.5l-3-39.6l0,0
			l1.5-39.602l0,0l-1.5-39.6v-41.2l3-42.7c0,0,0-1.5,1.5-1.5l36.602-4.6c4.6,0,7.6-4.602,7.6-9.102L2480.7,641.4z"/>
		<path fill="#5CBED7" d="M837.1,807.6c0-4.6,0-9.1,0-19.8c0-13.7,0-25.898-4.6-33.5c-4.6-9.1-12.2-16.8-22.9-21.3
			c-6.1-1.5-12.198-3-21.3-3c-3,0-7.6,0-12.2,0c-3,0-7.6,0-10.698,0c-4.602,0-7.602,0-10.7,0c-3,0-6.102,0-10.7,0c-3,0-6.1,0-9.1,0
			c-10.7,0-19.802,1.5-27.4,3c-3,0-4.6,3-6.1,6.1c-1.5,13.7-3,39.602-3,51.802c0,9.1,0,16.8,0,22.898c0,6.102,0,13.7,0,22.9
			s0,13.7,1.5,18.3c0,4.6,1.5,9.1,1.5,19.8c0,9.102,0,13.7,0,18.3c0,4.602,0,9.102,0,18.302c0,9.198,0,13.698,0,18.3
			c0,4.6,0,9.1,0,18.3c0,9.1,0,13.7,0,18.3c0,4.602,0,9.102,0,18.3c0,9.102,0,13.7,0,18.302c0,4.6,0,9.1,0,18.3
			c0,9.1,0,16.8,0,22.898c0,3,3,6.102,6.1,6.102s7.6,0,12.2,0c4.6,0,7.6,0,12.2,0c9.1,0,13.698,0,18.3-1.5c4.6,0,9.1,0,18.3-1.5
			c13.7-1.5,25.9-4.602,36.6-9.102c10.7-6.1,18.302-16.8,22.9-25.898c4.6-9.102,6.1-19.801,6.1-35.102c0-9.1,0-15.199,0-19.8
			c0-4.6,0-9.1,0-19.8c0-9.1,0-13.7,0-18.3c0-4.602,0-9.102,0-18.3c0-9.2,0-15.2,0-19.802c0-4.6,0-10.698,0-19.8
			c0-9.1,0-15.2,0-19.8s0-9.1,0-19.8C837.1,816.7,837.1,812.2,837.1,807.6z M770,1014.9c-1.5,0-4.6,0-6.1,0
			c-9.102,0-15.2-1.5-16.802-1.5l0,0c-3,0-4.6-3-6.1-6.102l0,0c0-1.5-3-19.8-3-39.6c0-10.7,0-15.2,1.5-19.8
			c0-4.602,1.5-9.102,1.5-18.302c0-9.1,0-15.198,0-19.8c0-4.6,0-10.7,0-19.8s0-13.7,0-19.8c0-4.601,0-10.7,0-19.8
			c0-9.102,0-13.7,0-19.801c0-4.601,0-9.101,0-19.801c0-19.8,0-41.199,0-41.199l0,0c0-3,1.5-4.601,3-6.101l0,0c0,0,9.1-4.6,19.8-4.6
			c3,0,6.102,0,7.602,1.5h1.5c7.6,0,13.698,1.5,16.8,6.1c4.6,4.601,7.6,13.7,7.6,24.4c0,9.1,0,13.699,0,18.3c0,4.6,0,9.1,0,19.8
			c0,9.101,0,13.7,1.5,18.3c0,4.602,1.5,10.7,1.5,19.801s0,13.699,0,19.801c0,4.6,0,9.1,0,19.8c0,9.1,0,15.2,0,19.8s0,9.1,0,18.3
			c0,9.102,0,13.7,0,18.3c0,4.602,1.5,9.102,0,19.802C800.5,1001.2,788.3,1013.4,770,1014.9z"/>
		<path fill="#5CBED7" d="M1026.1,833.5c0-4.6,0-10.7,0-19.8c0-10.7,1.5-16.8,1.5-21.3c0-4.602,1.5-9.102,1.5-19.802
			c0-13.698-3-25.898-7.6-35.1c-4.6-9.1-13.7-16.8-25.9-21.3c-9.1-3-19.8-4.602-30.5-4.602c-1.5,0-3,0-6.1,0
			c-12.2,0-22.9,6.102-32,9.102l-3,1.5c-12.2,4.6-18.3,12.2-24.4,22.898c-4.6,9.102-9.1,21.302-9.1,35.102c0,10.7,0,15.2,0,19.8
			s0,10.7,0,19.8c0,10.7,0,15.2-1.5,21.3c0,4.602,0,10.7-1.5,19.802c0,10.698,0,15.198-1.5,21.3c0,4.6,0,9.1,0,19.8
			c0,9.1,0,15.2,0,19.8c0,4.602,1.5,10.7,0,21.3v41.2c0,13.7,4.6,24.4,9.1,33.5c6.102,10.7,12.2,16.8,22.9,21.3
			c9.1,3,19.8,4.602,35.1,3c12.2,0,24.4-3,35.102-9.1c13.7-6.1,21.3-12.2,25.898-21.3c4.602-9.102,4.602-21.3,4.602-35.102
			c0-12.198,0-16.8,1.5-22.898c0-4.602,0-9.102,1.5-16.8c0-12.2,0-16.802,0-22.9c0-4.6,0-9.1,0-18.3c0-10.7,0-15.2,0-19.8
			c0-4.602,0-10.7,0-19.802C1026.1,844.2,1026.1,838.1,1026.1,833.5z M991.1,836.6c0,4.602,1.5,10.7,1.5,19.802
			c0,10.698,0,15.198-1.5,21.3c0,6.1-1.5,10.7-1.5,19.8c0,10.7,0,15.2,0,19.8c0,4.602,0,9.102,0,19.8c0,9.102,0,13.7,1.5,19.802
			c0,4.6,1.5,10.698,1.5,21.3c0,18.3-12.198,29-32,30.5c-1.5,0-1.5,0-3,0c-7.6,0-13.698-1.5-18.3-6.102
			c-4.6-4.6-6.1-12.198-6.1-21.3c0-9.1,0-15.2,0-19.8c-3-6.1-3-10.7-3-21.3V899c0-9.1,0-15.2-1.5-19.8c0-4.602-1.5-10.7-1.5-21.3
			c0-10.7,0-15.2,0-21.302c0-4.6,0-10.698,0-19.8c0-10.7,0-15.2,0-19.8s0-10.7,0-19.8c0-18.3,12.2-30.5,30.5-32
			c9.1-1.5,18.3,1.5,24.398,7.6c6.102,6.102,9.102,13.7,9.102,21.3c0,12.2,0,16.802-1.5,22.9c0,4.6,0,9.1-1.5,16.8
			C989.5,825.9,989.5,830.5,991.1,836.6z"/>
		<path fill="#5CBED7" d="M1924.2,780.1c0-4.6,0-10.698,0-19.8c0-10.7,1.5-16.8,1.5-21.3s1.5-9.1,1.5-19.8
			c0-13.7-3-25.9-7.602-35.102c-4.6-9.1-13.698-16.8-25.898-21.3c-9.102-3-19.8-4.6-30.5-4.6c-1.5,0-3,0-6.102,0
			c-12.198,0-22.898,6.1-32,9.1l-3,1.5c-12.198,4.602-18.3,12.2-24.398,22.9c-4.602,9.1-9.102,21.3-9.102,35.1c0,10.7,0,15.2,0,19.8
			c0,4.602,0,10.7,0,19.802c0,10.698,0,15.198-1.5,21.3c0,4.6,0,10.7-1.5,19.8c0,10.7,0,15.2-1.5,21.3c0,4.602,0,9.102,0,19.8
			c0,9.102,0,15.2,0,19.802c0,4.6,1.5,10.698,0,21.3v41.2c0,13.698,4.602,24.398,9.102,33.5c6.1,10.698,12.2,16.8,22.898,21.3
			c9.102,3,19.802,4.6,35.102,3c12.2-1.5,24.398-3,35.1-9.102c13.7-6.1,21.3-12.198,25.9-21.3c4.6-9.1,4.6-21.3,4.6-35.1
			c0-12.2,0-16.8,1.5-22.9c0-4.6,0-9.1,1.5-16.8c0-12.2,0-16.8,0-22.9c0-4.6,0-9.1,0-18.3c0-10.7,0-15.2,0-19.8s0-10.7,0-19.8
			C1924.2,790.8,1924.2,786.2,1924.2,780.1z M1887.6,784.7c0,4.6,1.5,10.7,1.5,19.8c0,10.7,0,15.2-1.5,21.3
			c0,6.102-1.5,10.7-1.5,19.8c0,10.7,0,15.2,0,19.802c0,4.6,0,9.1,0,19.8c0,9.1,0,13.7,1.5,19.8c0,4.6,1.5,10.7,1.5,21.3
			c0,18.3-12.198,29-32,30.5c-1.5,0-1.5,0-3,0l0,0c-7.6,0-13.698-1.5-18.3-6.1c-4.6-4.602-6.1-12.2-6.1-21.3
			c0-9.102,0-15.2,0-19.802c0-4.6-1.5-10.698,0-21.3v-41.2c0-9.1,0-15.198-1.5-19.8c0-4.6-1.5-10.7-1.5-21.3c0-10.7,0-15.2,0-21.3
			c0-4.602,0-10.7,0-19.8c0-10.7,0-15.2,0-19.802c0-4.6,0-10.698,0-19.8c0-18.3,12.2-30.5,30.5-32c9.1-1.5,18.3,1.5,24.398,7.602
			c6.102,6.1,9.102,13.698,9.102,21.3c0,12.2,0,16.8-1.5,22.898c0,4.602,0,9.102-1.5,16.802C1887.6,774,1887.6,778.6,1887.6,784.7z"
			/>
		<path fill="#5CBED7" d="M1594.8,900.6c0,9.102,0,13.7,1.5,19.802c0,4.6,1.5,10.698,1.5,21.3c0,15.2,1.5,25.898,6.102,33.5
			c6.1,10.7,13.698,18.3,22.898,21.3c9.102,3,21.3,4.6,35.102,3c13.698-1.5,25.898-3,36.6-9.1c13.7-6.102,22.9-13.7,27.4-22.9
			c4.6-7.6,4.6-19.8,4.6-32v-4.6c0-9.102,0-19.802,1.5-27.4c0-6.1-4.6-10.7-9.1-9.1l-21.302,1.5c-4.6,0-7.6,4.6-7.6,7.6
			c0,7.6-1.5,19.8-1.5,30.5c0,19.8-9.1,29-27.4,30.5c-1.5,0-1.5,0-3,0c-7.6,0-13.698-1.5-18.3-6.1c-4.6-4.602-7.6-12.2-7.6-21.302
			c0-10.698,0-15.198,0-21.3c0-4.6,0-10.7,0-19.8s0-15.2,0-19.8c0-4.602-1.5-10.7,0-21.3c0-10.7,0-15.2,0-19.802
			c0-4.6,0-10.698,0-19.8c0-9.1,0-15.2,0-19.8s-1.5-10.7,0-21.3c0-10.7,0-15.2,0-19.8c0-4.602,0-10.7,0-19.802
			c0-9.1,4.6-16.8,10.7-21.3c6.1-4.6,12.198-7.6,18.3-7.6l0,0c6.1,0,15.2,3,22.898,9.1c4.602,4.602,7.602,10.7,7.602,18.3
			c0,9.102,0,19.802,0,25.9c0,4.6,4.6,9.1,9.1,9.1h18.3c4.602,0,9.102-4.6,9.102-9.1c0-7.6,0-18.3,0-29c0-1.5,0-4.6,0-6.1
			c0-12.2,0-21.301-3-29c-4.602-9.102-13.7-15.2-27.4-19.801c-9.1-3-18.3-4.601-29-4.601c-1.5,0-4.6,0-7.6,0
			c-13.7,0-25.9,3-36.602,9.101C1613.4,685.7,1605.7,693.3,1601.2,702.5c-3,7.601-3,16.8-3,27.4c0,3,0,6.1,0,9.1
			c0,10.7,0,15.2,0,19.8c0,4.602,0,10.7,0,19.801c0,10.699-1.5,16.801-1.5,21.301s-1.5,9.1-1.5,19.8s0,15.2,0,19.8s0,10.7,0,19.8
			c0,9.102,0,15.2,1.5,19.8C1594.8,883.8,1594.8,889.9,1594.8,900.6z"/>
		<path fill="#5CBED7" d="M2171.2,943.3c4.6,9.102,15.2,13.7,27.398,18.3c12.2,4.602,22.9,6.102,35.102,4.602
			c13.7,0,24.398-3,35.1-9.102c10.7-4.6,16.8-12.198,22.9-24.398c4.6-10.7,7.6-21.3,7.6-35.102c0-10.698,0-15.198,0-21.3
			c0-4.6,0-10.7,0-21.3c0-16.8-1.5-29-9.1-39.6c-6.102-9.102-16.8-18.302-33.5-27.4c-12.2-7.6-19.8-15.2-27.4-21.3l-3-1.5
			c-13.7-12.2-19.8-22.9-19.8-33.5c0-7.602,0-10.7-1.5-13.7c0-4.6-1.5-7.6-1.5-16.8c0-16.8,10.7-29,29-30.5
			c9.1-1.5,18.3,1.5,22.9,7.6c4.6,4.602,7.6,12.2,7.6,19.8c0,9.102,0,19.802,0,27.4c0,6.1,4.6,10.7,10.7,9.1l18.3-1.5
			c4.6,0,9.1-4.6,9.1-9.1c0-7.6,0-18.3,0-29c0-12.2-3-24.4-7.6-33.5c-6.1-10.7-12.2-16.8-24.4-19.8c-9.1-3-21.3-6.102-35.1-6.102
			c-13.7,0-25.9,3-36.6,9.102c-10.7,4.6-18.302,12.2-24.4,24.398c-4.6,10.7-7.6,21.302-7.6,35.102c0,7.6,0,10.7,0,15.2s0,7.6,0,16.8
			c0,15.2,3,29,12.198,39.6c6.102,9.102,16.802,21.3,32,30.5c4.602,3,9.102,4.602,13.7,7.602c7.602,3,13.7,7.6,19.8,12.198
			c13.7,12.2,21.302,25.9,21.302,38.102c0,9.1,0,13.7,0,18.3s0,9.1,0,19.8s-4.602,27.4-32,29c-1.5,0-1.5,0-3,0l0,0
			c-9.102,0-15.2-1.5-19.802-6.1c-4.6-4.602-6.1-10.7-6.1-19.8c0-9.102,0-19.802,0-27.4c0-6.1-4.602-10.7-10.7-9.1l-19.8,1.5
			c-4.602,0-9.102,4.6-9.102,10.698c0,7.602,1.5,18.302,1.5,29c0,3,0,6.102,0,9.102C2168.1,928,2168.1,937.2,2171.2,943.3z"/>
		<path fill="#5CBED7" d="M1160.3,487.4L1160.3,487.4L1160.3,487.4c0-6.102-1.5-12.2-3-18.302c0,0,0,0,0-1.5
			c-1.5-1.5-1.5-4.6-1.5-7.6l0,0l0,0v-1.5c0-3,0-6.1,0-7.6l0,0l0,0c0-3,0-6.102,0-9.102c0-1.5,0-3,0-6.1c0-7.602,0-16.8-1.5-24.4
			c0-4.6,0-9.1,0-12.2l0,0l0,0c0-1.5,0-4.6,0-6.1s0-3,0-4.6l0,0c0-1.5-1.5-3-1.5-4.6c0-3,0-4.6,0-7.6c0-1.5,0-3,0-4.6l0,0l0,0
			c0-1.5,0-4.6-1.5-6.1c0-1.5-1.5-4.6-1.5-6.1c0-3,0-4.6,0-6.1s0-1.5,0-1.5c0-9.1-1.5-18.3-4.6-29l0,0l0,0c0-3,0-6.1,0-7.6s0-3,0-3
			c0-3,0-6.1,0-9.1c0-1.5,0-1.5,0-3c0-4.6,0-9.1-1.5-10.7c0-1.5-1.5-1.5-1.5-1.5c-1.5,0-3,0-4.601,1.5c0-4.6-1.5-4.6-4.601-4.6h-1.5
			c-1.5,0-3,0-4.6,0c-1.5,0-1.5,0-1.5,0l0,0l0,0l0,0l0,0c-6.102,3-7.602,6.1-9.102,12.2c-1.5,1.5-3,3-3,4.6c0,1.5,0,1.5,0,3
			c0,3-1.5,6.1-3,9.1c0,0,0,1.5-1.5,3s-1.5,4.6-4.6,6.1c-1.5,1.5-3,4.6-3,6.1l-1.5,1.5c0,0,0,0-1.5,1.5c0,1.5-1.5,3-1.5,4.6
			c0,1.5-1.5,3-1.5,3c-1.5,1.5-1.5,3-3,6.1c-1.5,3-1.5,6.1-3,9.1l-3,4.6c-1.5,1.5-4.6,3-6.1,3l0,0l0,0c-1.5,0-3,0-4.602-1.5
			l-1.5-1.5l0,0c0,0-1.5-1.5-1.5-3l-3-4.6c-1.5-3-3-4.6-4.6-7.6c-1.5-3-3-4.6-4.601-7.6c-1.5-1.5-1.5-3-3-4.6
			c-1.5-1.5-3-4.6-4.601-7.6l0,0l0,0l0,0c0,0,0,0,0-1.5l-1.5-1.5l0,0c-3-3-3-6.1-4.6-9.1c-1.5-4.6-4.602-9.1-6.102-13.7
			c0-1.5-1.5-4.6-3-6.1c-9.1,3-19.8,4.6-25.898,10.7c0,1.5,0,1.5,0,3c0,3,0,6.1,0,9.1c0,4.6,1.5,6.1,0,12.2
			c-1.5,12.2-1.5,24.4,0,36.6c0,9.1,1.5,18.3,1.5,27.4c1.5,6.1,3,18.3,3,35.1c0,12.2,1.5,32,3,36.6l1.5,3l-1.5,3
			c-1.5,4.602-4.602,22.9-3,27.4l0,0l0,0c0,1.5,0,3,0,4.6l0,0c1.5,1.5,1.5,3,3,4.602c0,3,0,4.6,0,6.1l0,0
			c1.5,4.602,3,6.102,6.1,6.102h1.5c1.5,0,3,1.5,3,1.5h1.5c1.5,0,4.602-1.5,6.102-1.5c0,0,0,0,1.5,0h1.5c1.5,0,1.5,0,1.5,0
			s0,0,1.5,0s1.5-1.5,1.5-4.602c0-1.5,0-1.5,0-3c0-3,1.5-6.1,1.5-10.7c1.5-9.1,4.6-24.398,3-30.5c0,0,0,0,0-1.5s-1.5-4.6-1.5-7.6
			c0-1.5,0-3,0-3l0,0c0-1.5,0-1.5,0-1.5V454l0,0l0,0c0-1.5,0-3,0-3c0-1.5,0-1.5,0-3l0,0l0,0c0-6.1,0-12.2-1.5-18.3
			c0-4.602,0-10.7,0-15.2c0-7.6,0-15.2-1.5-21.3c0-1.5,0-3-1.5-3c-1.5-3,0-6.1,1.5-10.7c0-9.1,4.6-9.1,6.1-9.1c3,0,1.5,4.6,3,6.1
			c3,3,7.6,6.1,10.7,9.1c6.1,7.6,13.699,13.7,16.8,21.3c1.5,1.5,1.5,3,3,4.6c1.5,1.5,1.5,4.6,3,4.6l0,0l0,0c1.5,1.5,3,3,6.1,3
			c1.5,0,3,0,3,0l0,0l0,0c1.5-1.5,3-6.1,3-9.1s0-4.6,1.5-7.6c0-1.5,9.102-10.7,10.7-16.8c4.6-12.2,1.5-13.7,6.1-13.7l0,0h3
			c3,0,6.102,12.2,6.102,15.2c0,1.5,3,6.1,3,7.6s1.5,1.5,3,3v1.5c1.5,3,1.5,1.5,1.5,3c0,0,0,0,0,1.5v1.5c0,1.5,0,3,1.5,4.6
			c0,1.5,0,3,0,4.602v1.5l0,0l0,0c0,1.5,0,4.6,0,6.1v22.9c0,4.6,0,9.1,1.5,13.698c0,9.102,1.5,18.302,1.5,29v1.5
			c0,1.5,1.5,4.602,1.5,7.602v1.5v1.5h1.5h1.5l0,0l0,0c1.5,0,3,0,6.1,0c3,0,4.601,0,7.601,0c6.101,0,7.601-1.5,7.601-1.5
			c1.5-3,0-9.102,0-13.7C1160.3,488.9,1160.3,487.4,1160.3,487.4z M974.3,394.4L974.3,394.4c0-1.5,0-3-1.5-4.6c0-1.5-1.5-3-1.5-4.6
			c0-1.5,0-4.6,0-6.1s0-3,0-4.6c0-3-1.5-6.1-3-10.7c-1.5-4.6-3-7.6-3-12.2c-6.1-13.7-13.7-21.3-22.898-27.4
			c-6.102-4.6-13.7-6.1-21.302-6.1c-6.1,0-12.198,1.5-21.3,3c-1.5,0-3,0-4.6,1.5l0,0l0,0c-9.102,1.5-16.8,3-22.9,9.1
			c0,0,0,1.5-1.5,1.5c0,1.5-1.5,3-3,4.6c1.5,3,1.5,3,0,4.6l-1.5,1.5c-10.7,19.8-9.1,42.7-9.1,62.5c0,4.6,0,7.6,0,10.698
			c0,6.102,0,13.7,0,19.802c0,10.698,0,19.8,0,30.5c0,1.5,0,3,1.5,4.6c0,1.5,1.5,3,1.5,4.6c0,1.5,0,4.602,0,6.102s0,3,0,4.6
			c0,3,1.5,6.102,3,10.7s3,9.1,3,13.7c0,3,7.6,12.2,15.2,19.8c6.1,6.1,19.8,15.2,27.398,15.2h1.5c7.602-1.5,13.7-3,19.8-6.102l0,0
			l0,0c12.2-1.5,19.802-3,25.9-9.1c0,0,0-1.5,1.5-3c0-1.5,1.5-3,3-4.6c1.5-1.602,1.5-3,3-3l1.5-1.5c10.7-19.802,9.1-42.7,9.1-62.5
			c0-4.602,0-7.602,0-12.2c0-6.102,0-13.7,0-19.8C974.3,414.2,975.8,405.1,974.3,394.4L974.3,394.4z M948.4,466.1v1.5
			c0,1.5,0,4.602,0,6.102c0,3,0,7.6-1.5,12.2c0,1.5-1.5,3-3,4.6c0,0,0,1.5-1.5,1.5l0,0l0,0v1.5c0,1.5,0,3-1.5,4.6
			c-1.5,3-4.602,7.602-7.602,10.7l-1.5,4.602l0,0c-1.5,1.5-3,4.6-7.6,4.6l0,0l0,0h-1.5c-1.5,0-3,0-4.602,0l0,0l0,0
			c-6.1,0-12.198-3-16.8-7.6l0,0l0,0c-1.5-1.5-1.5-3-3-4.602c0-1.5,0-1.5-1.5-3l0,0l0,0c0,0,0-1.5-1.5-1.5c0-1.5-1.5-1.5-1.5-3
			c-4.6-10.7-6.1-22.898-6.1-35.1c0-4.602,0-9.102-1.5-13.7c0-3-1.5-4.6-1.5-7.6s-1.5-4.602-1.5-7.602c0-4.6,0-10.7,0-15.2
			c0-3,0-6.1,0-9.1c0,0,0-1.5,0-3s-1.5-4.6,0-6.1c0-1.5,1.5-3,1.5-4.602c0-1.5,0-1.5,0-1.5c0-1.5,0-4.6,0-6.1c0-3,0-7.6,0-10.7
			c0-1.5,1.5-3,3-4.6c0,0,0-1.5,1.5-1.5l0,0l0,0V370c0-1.5,0-3,1.5-4.6l0,0l0,0c1.5-4.6,4.6-7.6,7.6-10.7c0-3,1.5-4.6,1.5-6.1
			c1.5-1.5,3-4.6,7.602-6.1c3-1.5,6.1-1.5,7.6-1.5l0,0l0,0c6.1,0,12.2,3,16.8,7.6l0,0l0,0c1.5,1.5,1.5,3,3,4.6c0,1.5,0,1.5,1.5,3
			l0,0l0,0c0,0,0,1.5,1.5,1.5c0,1.5,1.5,3,1.5,4.6c6.102,12.2,6.102,24.4,6.102,36.602c0,4.6,0,9.1,1.5,13.698
			c0,3,1.5,4.602,1.5,7.602s1.5,4.6,1.5,7.6c0,4.602,0,10.7,0,15.2c0,3,0,6.1,0,9.1c0,0,0,1.5,0,3s1.5,4.602,0,6.102
			C949.9,463,948.4,464.5,948.4,466.1z M1488.1,429.5c0-1.5,0-4.6,1.5-4.6c0-1.5,0-1.5,0-3l0,0l0,0c-4.6-19.802-3-42.7-3-64v-1.5
			c0-6.1,0-10.7,0-15.2c0-4.6,0-9.1,0-12.2c0-4.6,0-7.6,0-9.1s0-1.5,0-3c0-4.6,0-7.6,0-12.2c0-3,0-4.6,0-6.1v-1.5
			c0-1.5-1.5-3-1.5-6.1s0-4.6,0-7.6s0-9.1-1.5-10.7l0,0l0,0l0,0c0,0,0,0-1.5,0s-1.5,0-3,0c-3,0-4.6,0-7.6,1.5c-1.5,0-1.5,0-3,0
			s-3,0-4.6,1.5l0,0l0,0l0,0c0,0,0,1.5-1.5,3c0,1.5,0,4.6,0,6.1l0,0l0,0c0,1.5,0,3,0,6.1s0,7.6,0,10.7c0,1.5,0,3,0,4.6l0,0
			c0,1.5,0,3,0,4.6v1.5l0,0l0,0c0,1.5,0,4.6,0,6.1l0,0l0,0c0,1.5,0,3,0,4.6c0,1.5,0,1.5,0,3c0,3,0,6.1,0,9.1s0,6.1-1.5,9.1
			c0,3,0,6.1,0,10.7v1.5c0,3,1.5,6.1-1.5,9.1c-1.5,1.5-4.602,3-6.102,3c0,0-1.5,0-3,0s-3,1.5-4.6,1.5h-1.5c-1.5,0-4.602,0-6.102-1.5
			h-1.5c-1.5,0-3,0-4.6,0c-1.5,0-4.6,0-6.1,0s-1.5,0-3,0l0,0l0,0l0,0c-1.5,0-3,0-4.602,0h-1.5l0,0l0,0c-1.5,0-4.6,0-6.1,0
			s-4.6,0-6.1,0l0,0l0,0h-6.102l0,0l0,0c-4.6,0-9.1-3-9.1-9.1c0-1.5,0-3,0-6.1c0-3.1,0-6.1,0-9.1l0,0l0,0c0-1.5,0-3,1.5-4.6
			c0-1.5,0-1.5,0-3v-1.5c0-1.5-1.5-3-1.5-6.1c0-1.5,0-3,0-4.6c0-3,0-4.6,0-7.6l0,0l0,0c0-3,0-6.1,0-9.1s0-6.1,0-7.6l0,0l0,0v-1.5
			c0-1.5-1.5-3-1.5-6.1l0,0l0,0c0-1.5,0-4.6,0-6.1c0-3,0-9.1-1.5-10.7l0,0l0,0c0,0-1.5-1.5-4.6-1.5c-1.5,0-3,0-4.602,0
			c-3,0-4.6,0-6.1,1.5c-1.5,0-1.5,0-1.5,0l0,0h-1.5h-1.5l0,0c0,1.5-1.5,3-1.5,4.6l0,0l0,0c0,3,0,6.1,0,9.1c0,1.5,0,4.6,0,6.1
			s0,3,0,4.6v1.5v1.5v1.5l0,0v1.5v1.5c0,1.5,0,1.5,0,3c0,3,0,4.6,0,6.1s0,1.5,0,3l0,0v1.5v1.5l0,0l0,0v1.5c0,1.5,0,3,0,6.1
			c0,3.1,0,4.6,0,7.6l0,0l0,0l0,0c0,1.5,0,1.5,0,1.5v1.5v1.5c0,0,0,0,0,1.5v1.5l0,0v1.5l0,0c0,3,0,6.1,1.5,9.1
			c0,6.1,0,12.2-1.5,18.3l0,0l0,0c0,1.5-1.5,3-1.5,4.6c0,1.5,0,1.5-1.5,3c0,1.5,0,1.5,1.5,3c0,1.5,1.5,3,1.5,6.1l0,0l0,0
			c0,4.6,0,7.6,0,12.2c0,6.1,0,12.2,1.5,18.3c0,1.5,0,3,1.5,4.6c0,3,1.5,6.102,1.5,9.102l0,0l0,0c0,3,0,7.6-1.5,10.7
			c0,3-1.5,6.1-1.5,9.1s0,4.6,1.5,7.6c0,3,1.5,6.102,1.5,9.102c0,4.6,0,9.1,0,13.7c0,1.5,0,4.6,0,6.1l0,0c1.5,0,4.6,0,6.1,0
			c6.102,0,10.7-1.5,15.2-1.5c0-1.5,1.5-3,1.5-4.6c0-3,0-6.102,0-7.602s0-1.5,0-3l0,0l0,0c0-1.5,0-3,0-4.6c0-1.602,0-4.602,0-6.102
			c0-3,1.5-4.6,1.5-6.1s1.5-1.5,1.5-3s0-4.6-1.5-7.6c0-3-1.5-6.102-1.5-9.102c0-4.6-1.5-9.1-1.5-15.2c0-4.6-1.5-9.1-1.5-13.698l0,0
			l0,0v-1.5c0-4.602-1.5-9.102,0-12.2l0,0l0,0c3-4.6,13.7-4.6,16.8-6.1c1.5,0,3,0,3,0c3,0,7.602,0,10.7,0c3,0,6.1,0,9.1,0
			c1.5,0,1.5,0,3,0l0,0l0,0c1.5,0,3,0,4.602,0c1.5,0,3,0,4.6,0l0,0l0,0c7.6,0,9.1,1.5,10.7,1.5l0,0c1.5,0,4.6,0,7.6,3
			c3,3,3,7.6,1.5,9.1l0,0c0,1.5,0,4.6,1.5,6.1l0,0l0,0c0,6.102,1.5,10.7,1.5,16.8c1.5,6.102,0,12.2,0,16.802c0,3-1.5,7.6,0,10.698
			c0,3,0,6.102,1.5,9.102c0,3,1.5,4.6,1.5,7.6l0,0l0,0v7.602v6.1c0,1.5,0,1.5,0,3s0,4.6,1.5,4.6l0,0l0,0l0,0c3,0,4.6,0,7.6,0l0,0
			l7.602-1.5h1.5h1.5l0,0c0-1.5,0-6.1,1.5-7.6V481l0,0l0,0c1.5-4.6,1.5-10.7,1.5-16.8v-3l0,0c0-4.602,0-9.102-1.5-13.7
			C1488.1,443.2,1486.6,437.1,1488.1,429.5z M1332.6,482.8L1332.6,482.8L1332.6,482.8c0-3,0-3,0-4.6v-1.5c0,0,0-1.5-1.5-1.5
			c0-1.5-1.5-3-1.5-4.602c-1.5-4.6-1.5-9.1-3-13.698c-1.5-6.102-3-10.7-3-15.2c0-1.5,0-3,0-3c0-1.5,0-3,0-3l0,0l0,0
			c0-1.5,0-1.5-1.5-3s-1.5-4.602-1.5-6.102s0-3,0-4.6c0-1.601,0-3,0-3c0-1.5,0-1.5-1.5-3s-1.5-3-1.5-6.101c0-1.5,0-3,0-4.601l0,0
			c0,0,0,0,0-1.5c0,0-1.5-1.5-1.5-3c-4.6-13.7-7.6-24.4-9.1-35.1c-1.5-10.7-4.6-22.9-7.6-32c-4.602-10.7-6.102-22.9-7.602-33.5
			c0-3-1.5-6.1-1.5-9.1c0-1.5,0-3,0-4.6c-1.5-6.1-1.5-7.6-7.6-10.7c-1.5,0-16.8-1.5-22.9-1.5l0,0c-4.6,1.5-7.6,6.1-9.1,10.7
			c-1.5,4.6-3,7.6-3,12.2c-1.5,4.6-1.5,9.1-3,13.7c0,1.5-1.5,3-1.5,4.6c0,1.5-1.5,3-1.5,3l0,0l0,0c0,0,0,1.5,0,3s0,1.5,0,3l0,0l0,0
			c-1.5,3-3,7.6-3,10.7c-1.5,3-1.5,4.6-3,7.6s-1.5,4.6-1.5,7.6c0,1.5-1.5,4.6-1.5,6.1l0,0l0,0c0,1.5-1.5,4.6-1.5,6.1
			c-1.5,3-3,6.1-3,9.1l0,0l0,0c0,0,0,1.5,0,3s0,3,0,4.6c-4.602,7.6-6.102,12.2-7.602,15.2c-1.5,4.6-3,9.1-3,13.7
			c0,3-1.5,6.1-1.5,9.1c-1.5,6.102-1.5,12.2-3,18.3c0,1.5-1.5,3-3,4.602c0,0,0,0,0,1.5l0,0c0,4.6-1.5,10.7-3,15.2c0,3,0,4.6,0,7.6
			c-1.5,9.1-3,16.8-4.6,21.3l0,0l0,0c0,1.5-1.5,3-1.5,6.102c3,3,7.6,4.6,12.2,4.6h1.5h1.5c1.5,0,3,0,4.6,0l0,0l0,0l0,0h1.5
			c1.5-1.5,3-1.5,4.602-3c0,0,0,0,0-1.5l0,0l0,0c1.5-3,1.5-6.1,1.5-10.7c0-1.5,0-3,0-4.6l0,0l0,0c0-3,1.5-6.102,3-10.7
			c1.5-3,3-4.6,4.6-6.1c1.5-1.5,4.6-3,6.1-3h1.5l0,0h3h1.5c1.5,0,3,0,4.602,0c1.6,0,3,0,4.6,0l0,0l0,0c4.601,0,9.101,0,13.7,0
			c1.5,0,4.6,0,6.1,0l0,0c0,0,12.2,0,16.801,3l0,0l0,0c6.101,3,7.601,12.198,9.101,22.898c0,1.5,0,3,0,4.602l0,0l0,0
			c0,1.5,0,1.5,0,3s0,1.5,0,3c0,0,1.5,0,3,0s1.5,0,3,0s1.5,0,3,0c0,0,0,0,1.5,0l0,0l0,0c1.5,0,3,0,4.6,0c1.5,0,3,0,4.602,0l0,0l0,0
			c1.5,0,1.5,0,3,0c0,0,1.5-1.5,3-1.5l0,0c1.5,0,1.5,0,3,0l0,0c0-1.5-1.5-3-1.5-4.602C1334.1,487.4,1332.6,485.9,1332.6,482.8z
			 M1282.3,426.4L1282.3,426.4L1282.3,426.4c-4.6,1.5-6.1,1.5-10.7,1.5h-1.5c-1.5,0-3,0-4.6,0c-3,0-6.1,0-10.7,0
			c-4.6,0-9.1,0-12.198-1.5h-1.5l-1.5-1.5c-4.602-4.602-3-10.7-1.5-13.7v-1.5c0-3,0-4.602,1.5-9.102c0-1.5,0-4.6,1.5-6.1l0,0l0,0
			c0-3,1.5-4.6,1.5-7.6l0,0c0-1.5,0-3,0-4.6c0-1.5,1.5-3,1.5-4.6c0-3,1.5-6.1,3-9.1c0-1.5,0-1.5,0-3l0,0l0,0
			c1.5-7.6,4.6-15.2,9.1-22.9c1.5-3,3-4.6,6.1-4.6c1.5,0,3,0,3,0c4.602,1.5,7.602,7.6,7.602,12.2c0,1.5,0,3,1.5,3l0,0l0,0
			c0,1.5,1.5,3,3,4.6c1.5,1.5,1.5,3,3,6.1l0,0l0,0c0,1.5,0,3,1.5,6.1c0,1.5,0,3,0,3l0,0l0,0c1.5,4.6,1.5,7.6,3,12.2
			c0,1.5,1.5,3,1.5,4.6l0,0l0,0c0,1.5,0,1.5,0,3c0,3,1.5,4.6,1.5,9.1C1293,412.7,1293,421.8,1282.3,426.4z M1658.9,490.4
			c0-1.5-1.5-3-1.5-4.602l0,0l0,0c0-1.5,0-1.5,0-3v-1.5c0,0,0-1.5-1.5-1.5c0-1.5-1.5-3-1.5-4.6c-1.5-3-1.5-7.602-3-12.2
			c-3-4.6-4.602-10.7-6.102-16.8c-1.5-13.7-7.6-29-7.6-42.7V402c-3-10.7-6.102-21.3-7.602-32s-4.6-22.9-7.6-32
			c-4.6-10.7-6.1-22.9-7.6-33.5c0-3-1.5-6.1-1.5-9.1c0-1.5,0-3,0-4.6c-1.5-6.1-1.5-7.6-7.602-10.7l0,0c-7.6,1.5-15.198,1.5-22.898,0
			h-1.5c-1.5,3-4.602,6.1-4.602,9.1c-1.5,4.6-3,7.6-3,12.2c-1.5,4.6-1.5,9.1-3,13.7c0,1.5-1.5,3-1.5,4.6c0,1.5-1.5,3-1.5,3l0,0l0,0
			c0,0,0,1.5,0,3s0,1.5,0,3l0,0l0,0c-1.5,3-3,7.6-3,10.7c-1.5,3-1.5,4.6-3,7.6s-1.5,4.6-1.5,7.6c0,1.5-1.5,4.6-1.5,6.1l0,0l0,0
			c0,1.5-1.5,4.6-1.5,6.1c-1.5,3-3,6.1-3,9.1l0,0l0,0c0,0,0,1.5,0,3s0,3,0,4.6c-1.5,4.6-1.5,9.1-3,12.2c-1.5,4.6-3,9.1-3,13.7
			c0,3-1.5,6.1-1.5,9.1c-1.5,6.1-1.5,12.2-3,18.3c0,1.5-1.5,3-3,4.602c-1.5,1.5-1.5,3-1.5,4.6c0,3,0,6.101-1.5,9.101
			c0,3,0,6.101-1.5,10.699c-1.5,6.102-3,10.7-4.6,16.801v3l0,0l0,0c-3,9.101-3,9.101-1.5,10.699c1.5,1.5,3,1.5,4.6,1.5l0,0l0,0l0,0
			l0,0c1.5,0,4.602-1.5,6.102-1.5h1.5c1.5,0,3,0,4.6,0l0,0l0,0l0,0h1.5c1.5-1.5,3-1.5,4.6-3c0,0,0,0,0-1.5l0,0l0,0
			c1.5-3,1.5-4.6,1.5-7.6c0-1.5,0-3,0-4.602l0,0l0,0c0-3,1.5-6.1,3-10.698c1.5-3,3-4.602,4.602-6.102c1.5-1.5,4.6-3,6.1-3h1.5l0,0h3
			h1.5c1.5,0,3,0,4.602,0c1.5,0,3,0,4.6,0l0,0l0,0c4.6,0,9.1,0,13.7,0c1.5,0,4.6,0,6.1,0l0,0c0,0,12.2,0,16.8,3l0,0l0,0
			c6.102,3,7.602,12.2,9.102,22.9c0,1.5,0,3,0,4.6l0,0l0,0c0,1.5,0,3,0,4.602c0,1.6,0,1.5,0,3c1.5,1.5,1.5,3,3,3l0,0
			c1.5,0,1.5,0,3,0s1.5,0,3,0c0,0,0,0,1.5,0l0,0l0,0c1.5,0,3,0,4.6,0c1.5,0,3,0,4.602,0l0,0l0,0c1.5,0,1.5,0,3,0c0,0,1.5-1.5,3-1.5
			l0,0c1.5,0,1.5,0,3,0l0,0C1661.9,498.1,1660.4,493.5,1658.9,490.4z M1614.7,427.9c-3,1.5-6.102,1.5-7.602,1.5
			c-4.6,1.5-6.1,1.5-9.1,1.5h-1.5c-1.5,0-3,0-4.6,0c-3,0-6.102,0-10.7,0c-4.602,0-9.102,0-12.2-1.5h-1.5l-1.5-1.5
			c-4.6-4.602-3-10.7-1.5-13.7v-1.5c0-3,0-4.602,1.5-9.102c0-1.5,0-4.6,1.5-6.1l0,0l0,0c0-1.5,1.5-1.5,1.5-1.5l0,0c0,0,0,0,0-1.5
			c0,0,0,0,0-1.5c0,0,0,0,0-1.5s0-4.6,0-7.6s1.5-4.6,3-6.1c0-1.5,1.5-3,1.5-4.6l0,0c0-1.5,0-3,0-4.6l0,0l0,0
			c1.5-7.6,4.601-15.2,9.101-22.9c1.5-3,3-4.6,6.101-4.6c1.5,0,3,0,3,0c4.6,1.5,7.6,7.6,7.6,12.2c0,1.5,0,3,1.5,3l0,0l0,0
			c0,1.5,1.5,3,3,4.6c1.5,1.5,1.5,3,3,6.1l0,0l0,0c0,1.5,0,3,1.5,6.1c0,1.5,0,3,0,3l0,0l0,0c1.5,4.6,1.5,7.6,3,12.2
			c0,1.5,1.5,3,1.5,4.6l0,0l0,0c0,1.5,0,1.5,0,3c0,3,1.5,4.6,1.5,9.1c0,3,0,4.6,0,7.6C1617.7,421.8,1617.7,426.4,1614.7,427.9z"/>
		<path fill="#5CBED7" d="M2541.7,627.7h-9.102h-7.6c-1.5,0-1.5,1.5-1.5,1.5v3c0,1.5,1.5,1.5,1.5,1.5h4.6v10.7V655.1v10.7v7.602
			c0,1.5,1.5,1.5,1.5,1.5h3c0,0,1.5,0,1.5-1.5V664.3v-10.7V642.9v-10.7h4.602c1.5,0,1.5-1.5,1.5-1.5V627.7L2541.7,627.7z"/>
		<path fill="#5CBED7" d="M2582.9,661.2V649v-12.2v-10.7c0-1.5,0-1.5-1.5-1.5h-4.602c-1.5,0-1.5,0-1.5,1.5l-3,9.102l-3,10.7
			l-3,10.698l-3-10.698l-1.5-10.7l-3-9.102c0-1.5-1.5-1.5-1.5-1.5h-3c-1.5,0-1.5,1.5-1.5,1.5v9.102v12.2V659.6v10.7
			c0,0,0,1.5,1.5,1.5h3c1.5,0,1.5-1.5,1.5-1.5v-12.2V644.4l1.5,9.1l1.5,9.1l1.5,7.602c0,1.5,1.5,1.5,1.5,1.5h1.5
			c1.5,0,1.5-1.5,1.5-1.5l1.5-7.602l3-9.1l1.5-9.1V658.1v12.2c0,1.5,0,1.5,1.5,1.5h4.602c0,0,1.5,0,1.5-1.5L2582.9,661.2z"/>
	</g>
</g>
<g>
	<path fill="#02354A" d="M900.987,1316.842h23.236l17.718,172.237l18.879-172.237h23.236l18.879,171.946l17.718-171.946h22.655
		l-24.688,203.315h-30.207l-16.265-145.807l-16.266,145.807h-30.207L900.987,1316.842z"/>
	<path fill="#02354A" d="M1122.893,1316.842v21.493h-40.663v67.385h39.21v21.203h-39.21v71.741h41.244v21.493h-64.48v-203.315
		H1122.893z"/>
	<path fill="#02354A" d="M1209.736,1520.157H1186.5v-203.315h23.236V1520.157z"/>
	<path fill="#02354A" d="M1294.836,1316.842h22.074v203.315h-29.045l-36.597-158.877v158.877h-22.074v-203.315h31.949
		l33.692,147.259V1316.842z"/>
	<path fill="#02354A" d="M1398.527,1316.842h22.945l-32.24,203.896h-25.56l-32.24-203.896h23.526l21.784,155.391L1398.527,1316.842z
		"/>
	<path fill="#02354A" d="M1499.895,1316.842v21.493h-40.663v67.385h39.211v21.203h-39.211v71.741h41.244v21.493h-64.48v-203.315
		H1499.895z"/>
	<path fill="#02354A" d="M1597.195,1454.516v29.626c0,25.269-12.489,37.759-37.759,37.759h-6.39
		c-24.979,0-37.178-12.49-37.178-37.178v-42.696h22.655v43.567c0,10.456,4.938,15.394,15.394,15.394h4.647
		c10.456,0,15.394-4.938,15.394-15.394v-30.498c0-10.165-3.485-14.522-10.166-19.46l-28.464-20.622
		c-15.104-10.746-19.46-21.203-19.46-37.759v-24.397c0-25.27,12.489-37.759,37.759-37.759h5.809
		c24.979,0,37.178,12.489,37.178,37.178v36.597h-22.655v-37.468c0-10.456-4.938-15.394-15.394-15.394h-4.066
		c-10.456,0-15.394,4.938-15.394,15.394v25.56c0,10.166,3.775,14.522,10.456,19.46l28.174,20.332
		C1592.548,1427.503,1597.195,1437.088,1597.195,1454.516z"/>
	<path fill="#02354A" d="M1637.279,1520.157v-181.822h-30.498v-21.493h84.231v21.493h-30.498v181.822H1637.279z"/>
</g>
</svg>
