<?xml version="1.0" encoding="utf-8"?>
<!-- Generator: Adobe Illustrator 15.1.0, SVG Export Plug-In . SVG Version: 6.00 Build 0)  -->
<!DOCTYPE svg PUBLIC "-//W3C//DTD SVG 1.1//EN" "http://www.w3.org/Graphics/SVG/1.1/DTD/svg11.dtd">
<svg version="1.1" id="Layer_1" xmlns="http://www.w3.org/2000/svg" xmlns:xlink="http://www.w3.org/1999/xlink" x="0px" y="0px"
	 width="200px" height="230px" viewBox="0 0 200 230" enable-background="new 0 0 200 230" xml:space="preserve">
<path fill="#FFFFFF" d="M43.151,126.586c-4.879,0-8.85-3.973-8.85-8.852c0-4.879,3.971-8.851,8.85-8.851s8.851,3.971,8.851,8.851
	C52.001,122.613,48.03,126.586,43.151,126.586 M43.151,95.324c-12.356,0-22.409,10.054-22.409,22.41s10.053,22.412,22.409,22.412
	c12.357,0,22.411-10.055,22.411-22.412C65.562,105.378,55.508,95.324,43.151,95.324"/>
<path fill="#FFFFFF" d="M164.707,147.477c-16.471,0-29.865-13.398-29.865-29.869c0-16.47,13.395-29.869,29.865-29.869
	c16.47,0,29.867,13.398,29.867,29.869C194.574,134.078,181.178,147.477,164.707,147.477 M43.15,155.463
	c-20.802,0-37.727-16.925-37.727-37.729c0-20.802,16.925-37.729,37.727-37.729c20.804,0,37.728,16.926,37.728,37.729
	C80.878,138.538,63.954,155.463,43.15,155.463 M121.48,167.018c15.871,0,28.783,12.912,28.783,28.783
	c0,15.873-12.912,28.785-28.783,28.785c-15.873,0-28.785-12.912-28.785-28.785C92.697,179.93,105.607,167.018,121.48,167.018
	 M92.989,36.377c0-17.067,13.884-30.953,30.948-30.953c17.07,0,30.955,13.886,30.955,30.953c0,17.068-13.885,30.954-30.955,30.954
	C106.873,67.331,92.989,53.445,92.989,36.377 M164.707,82.314c-18.264,0-33.332,13.948-35.113,31.75H86.135
	c-0.821-9.702-4.854-18.501-11.044-25.316l24.967-24.968c6.395,5.583,14.747,8.975,23.879,8.975
	c20.062,0,36.379-16.32,36.379-36.378S144,0,123.938,0c-20.057,0-36.374,16.319-36.374,36.377c0,8.975,3.276,17.195,8.682,23.546
	L71.192,84.978c-7.548-6.472-17.343-10.394-28.042-10.394C19.357,74.584,0,93.94,0,117.734c0,23.795,19.357,43.152,43.15,43.152
	c10.998,0,21.043-4.141,28.671-10.938l23.661,23.66c-5.11,5.979-8.208,13.728-8.208,22.191c0,18.863,15.345,34.211,34.207,34.211
	c18.862,0,34.207-15.348,34.207-34.211c0-18.861-15.346-34.207-34.207-34.207c-8.448,0-16.188,3.086-22.161,8.182l-23.684-23.684
	c6.274-7.178,10.213-16.441,10.622-26.604h43.209c0.982,18.589,16.412,33.412,35.24,33.412c19.459,0,35.293-15.834,35.293-35.293
	C200,98.147,184.166,82.314,164.707,82.314"/>
<path fill="#FFFFFF" d="M125.426,43.714c-3.381,0-6.965-0.989-10.1-3.38l-5.148,6.141c3.666,3.214,8.941,4.864,14.793,4.864
	c7.748,0,12.734-3.709,12.734-9.768v-0.084c0-5.809-4.947-7.952-12.32-9.312c-3.053-0.577-3.834-1.072-3.834-1.855v-0.082
	c0-0.7,0.658-1.194,2.102-1.194c2.681,0,5.937,0.864,8.654,2.843l4.699-6.511c-3.34-2.637-7.461-3.956-13.025-3.956
	c-7.951,0-12.237,4.245-12.237,9.727v0.081c0,6.1,5.688,7.955,12.155,9.272c3.093,0.619,3.998,1.073,3.998,1.896v0.083
	C127.896,43.26,127.156,43.714,125.426,43.714"/>
<path fill="#FFFFFF" d="M168.408,122.436c0,1.188-1.031,2.02-3.049,2.02h-4.629v-4.117h4.67c2.018,0,3.008,0.832,3.008,2.02V122.436
	z M160.73,110.763h3.998c1.977,0,2.965,0.672,2.965,1.899v0.08c0,1.227-0.947,1.898-2.928,1.898h-4.035V110.763z M171.852,116.975
	c2.967-1.029,4.945-3.045,4.945-6.332v-0.079c0-1.9-0.713-3.324-1.701-4.314c-1.623-1.622-4.037-2.492-7.877-2.492h-15.512v27.701
	h15.355c7.006,0,10.645-3.244,10.645-7.677v-0.08C177.707,119.904,175.412,118.005,171.852,116.975"/>
<polygon fill="#FFFFFF" points="117.244,196.771 126.58,208.371 134.049,208.371 134.049,183.234 125.719,183.234 125.719,194.332 
	116.777,183.234 108.914,183.234 108.914,208.371 117.244,208.371 "/>
</svg>
