<?xml version="1.0" encoding="utf-8"?>
<!-- Generator: Adobe Illustrator 15.1.0, SVG Export Plug-In  -->
<!DOCTYPE svg PUBLIC "-//W3C//DTD SVG 1.1//EN" "http://www.w3.org/Graphics/SVG/1.1/DTD/svg11.dtd" [
	<!ENTITY ns_flows "http://ns.adobe.com/Flows/1.0/">
]>
<svg version="1.1"
	 xmlns="http://www.w3.org/2000/svg" xmlns:xlink="http://www.w3.org/1999/xlink" xmlns:a="http://ns.adobe.com/AdobeSVGViewerExtensions/3.0/"
	 x="0px" y="0px" width="80px" height="70px" viewBox="-1.826 -1.5 80 70"
	 overflow="visible" enable-background="new -1.826 -1.5 80 70" xml:space="preserve">
<defs>
</defs>
<g>
	<defs>
		<rect id="SVGID_3_" width="76.348" height="67"/>
	</defs>
	<clipPath id="SVGID_4_">
		<use xlink:href="#SVGID_3_"  overflow="visible"/>
	</clipPath>
	<path clip-path="url(#SVGID_4_)" fill="#5CBED7" d="M0,6.593C0,2.971,2.654,0,6.468,0c3.855,0,6.511,2.971,6.511,6.593
		c0,3.623-2.656,6.614-6.511,6.614C2.654,13.207,0,10.216,0,6.593 M9.818,6.593c0-2.191-1.476-3.644-3.35-3.644
		c-1.833,0-3.307,1.453-3.307,3.644c0,2.19,1.474,3.643,3.307,3.643C8.342,10.236,9.818,8.783,9.818,6.593"/>
	<path clip-path="url(#SVGID_4_)" fill="#5CBED7" d="M17.63,12.914h-3.034V4.064h1.832l0.485,1.202h0.147
		c0.57-0.864,1.456-1.413,2.781-1.413c1.369,0,2.444,0.528,3.076,1.474h0.105c0.57-0.905,1.369-1.494,2.738-1.494
		c2.255,0,3.647,1.494,3.647,3.876v5.204h-3.034V7.942c0-0.803-0.508-1.433-1.392-1.433c-0.864,0-1.409,0.526-1.453,1.285v5.119
		h-3.033V7.942c0-0.803-0.527-1.433-1.413-1.433c-0.904,0-1.452,0.569-1.452,1.433V12.914z"/>
	<path clip-path="url(#SVGID_4_)" fill="#5CBED7" d="M37.764,5.203l0.488-1.138h1.979v8.849h-1.979l-0.488-1.138h-0.125
		c0,0-0.654,1.348-2.653,1.348c-2.362,0-4.11-1.768-4.11-4.614c0-2.758,1.748-4.656,4.087-4.656c2.022,0,2.676,1.349,2.676,1.349
		H37.764z M35.636,6.34c-1.031,0-1.703,0.862-1.703,2.128c0,1.264,0.672,2.169,1.703,2.169c1.077,0,1.73-0.864,1.73-2.169
		C37.366,7.161,36.713,6.34,35.636,6.34"/>
	<path clip-path="url(#SVGID_4_)" fill="#5CBED7" d="M42.271,0.167h3.077v4.699h0.084c0.379-0.549,1.138-1.033,2.318-1.033
		c2.085,0,3.475,1.475,3.475,3.855v5.204H48.19v-4.95c0-0.802-0.633-1.432-1.432-1.432c-0.759,0-1.371,0.568-1.411,1.326v5.077
		h-3.077V0.167z"/>
	<path clip-path="url(#SVGID_4_)" fill="#5CBED7" d="M59.562,5.203l0.484-1.138h1.982v8.849h-1.982l-0.484-1.138h-0.125
		c0,0-0.654,1.348-2.653,1.348c-2.362,0-4.11-1.768-4.11-4.614c0-2.758,1.748-4.656,4.087-4.656c2.022,0,2.677,1.349,2.677,1.349
		H59.562z M57.437,6.34c-1.031,0-1.706,0.862-1.706,2.128c0,1.264,0.675,2.169,1.706,2.169c1.074,0,1.727-0.864,1.727-2.169
		C59.163,7.161,58.511,6.34,57.437,6.34"/>
	<path clip-path="url(#SVGID_4_)" fill="#12486A" d="M2.845,27.101c0,0,1.812,1.223,3.517,1.223c0.949,0,1.392-0.423,1.392-1.054
		c0-0.653-0.401-0.992-2.173-1.517c-2.652-0.779-4.17-1.812-4.17-3.897c0-2.297,1.561-3.919,4.889-3.919
		c3.433,0,4.76,1.349,4.76,1.349l-1.643,2.485c0,0-1.327-1.053-3.117-1.053c-1.033,0-1.369,0.4-1.369,0.928
		c0,0.631,0.546,0.884,1.999,1.305c2.803,0.779,4.406,1.875,4.406,3.982c0,2.296-1.539,4.193-4.869,4.193
		c-3.495,0-5.287-1.687-5.287-1.687L2.845,27.101z"/>
	<path clip-path="url(#SVGID_4_)" fill="#12486A" d="M15.86,30.85h-3.032v-8.849h1.832l0.485,1.202h0.147
		c0.568-0.864,1.454-1.412,2.781-1.412c1.369,0,2.442,0.528,3.076,1.474h0.105c0.568-0.905,1.369-1.495,2.739-1.495
		c2.254,0,3.644,1.495,3.644,3.876v5.204h-3.033v-4.97c0-0.803-0.507-1.434-1.391-1.434c-0.864,0-1.411,0.527-1.454,1.285v5.119
		h-3.034v-4.97c0-0.803-0.527-1.434-1.409-1.434c-0.908,0-1.456,0.57-1.456,1.434V30.85z"/>
	<path clip-path="url(#SVGID_4_)" fill="#12486A" d="M35.997,23.141l0.485-1.138h1.98v8.849h-1.98l-0.485-1.138H35.87
		c0,0-0.654,1.348-2.653,1.348c-2.36,0-4.11-1.769-4.11-4.614c0-2.759,1.75-4.656,4.087-4.656c2.022,0,2.676,1.349,2.676,1.349
		H35.997z M33.869,24.278c-1.031,0-1.706,0.862-1.706,2.128c0,1.264,0.675,2.169,1.706,2.169c1.075,0,1.728-0.864,1.728-2.169
		C35.597,25.1,34.943,24.278,33.869,24.278"/>
</g>
<rect x="40.501" y="18.104" fill="#12486A" width="3.034" height="12.746"/>
<rect x="45.599" y="18.104" fill="#12486A" width="3.032" height="12.746"/>
<g>
	<defs>
		<rect id="SVGID_2_" width="76.348" height="67"/>
	</defs>
	<clipPath id="SVGID_5_">
		<use xlink:href="#SVGID_2_"  overflow="visible"/>
	</clipPath>
	<path clip-path="url(#SVGID_5_)" fill="#12486A" d="M7.943,48.789H1.982v-12.64h5.877c2.992,0,4.424,1.306,4.424,3.454
		c0,1.033-0.568,2.003-1.497,2.55v0.169c1.182,0.379,1.833,1.412,1.833,2.696C12.619,47.378,10.935,48.789,7.943,48.789
		 M7.796,38.781h-2.76v2.487h2.696c0.781,0,1.307-0.569,1.307-1.224C9.039,39.352,8.554,38.781,7.796,38.781 M5.036,43.544v2.612
		h2.927c0.822,0,1.37-0.609,1.37-1.284c0-0.633-0.485-1.267-1.242-1.328H5.036z"/>
	<path clip-path="url(#SVGID_5_)" fill="#12486A" d="M20.01,39.941h3.034v8.849h-2.063l-0.506-1.182h-0.127
		C19.801,48.411,19.064,49,17.799,49c-2.255,0-3.666-1.474-3.666-3.854v-5.204h3.034v4.993c0,0.863,0.485,1.515,1.369,1.515
		c0.929,0,1.474-0.714,1.474-1.452V39.941z"/>
	<path clip-path="url(#SVGID_5_)" fill="#12486A" d="M25.507,46.009c0,0,1.409,0.864,2.803,0.864c0.779,0,1.031-0.233,1.031-0.528
		c0-1.158-4.593-0.379-4.593-3.832c0-1.58,1.264-2.782,3.666-2.782c2.676,0,4.025,0.803,4.025,0.803l-0.863,2.169
		c0,0-1.245-0.801-2.783-0.801c-0.59,0-0.928,0.167-0.928,0.506c0,1.116,4.719,0.274,4.719,3.771c0,1.6-1.177,2.823-4.045,2.823
		c-2.738,0-3.918-0.928-3.918-0.928L25.507,46.009z"/>
	<path clip-path="url(#SVGID_5_)" fill="#12486A" d="M34.016,37.161c0-0.969,0.734-1.664,1.703-1.664
		c0.971,0,1.752,0.695,1.752,1.664s-0.781,1.644-1.752,1.644C34.75,38.805,34.016,38.13,34.016,37.161 M34.182,39.94h3.032v8.849
		h-3.032V39.94z"/>
	<path clip-path="url(#SVGID_5_)" fill="#12486A" d="M39.279,39.941h1.831l0.485,1.202h0.149c0.715-1.014,1.43-1.435,2.778-1.435
		c2.255,0,3.689,1.497,3.689,3.877v5.204h-3.035v-4.973c0-0.8-0.547-1.434-1.433-1.434c-0.822,0-1.39,0.569-1.435,1.328v5.078
		h-3.031V39.941z"/>
	<path clip-path="url(#SVGID_5_)" fill="#12486A" d="M57.941,47.968c0,0-1.115,1.095-3.412,1.095c-3.077,0-4.867-2.085-4.867-4.695
		c0-2.656,1.853-4.636,4.508-4.636c2.592,0,4.212,1.663,4.212,4.401c0,0.317-0.018,0.844-0.018,0.844h-5.772
		c0.167,1.202,0.884,1.704,2.148,1.704c1.285,0,2.169-0.671,2.169-0.671L57.941,47.968z M52.632,43.333h2.845
		c-0.042-0.843-0.527-1.412-1.391-1.412C53.371,41.921,52.821,42.385,52.632,43.333"/>
	<path clip-path="url(#SVGID_5_)" fill="#12486A" d="M60.277,46.009c0,0,1.408,0.864,2.803,0.864c0.779,0,1.031-0.233,1.031-0.528
		c0-1.158-4.594-0.379-4.594-3.832c0-1.58,1.265-2.782,3.666-2.782c2.677,0,4.025,0.803,4.025,0.803l-0.864,2.169
		c0,0-1.244-0.801-2.781-0.801c-0.591,0-0.929,0.167-0.929,0.506c0,1.116,4.719,0.274,4.719,3.771c0,1.6-1.178,2.823-4.045,2.823
		c-2.737,0-3.918-0.928-3.918-0.928L60.277,46.009z"/>
	<path clip-path="url(#SVGID_5_)" fill="#12486A" d="M69.27,46.009c0,0,1.41,0.864,2.803,0.864c0.779,0,1.031-0.233,1.031-0.528
		c0-1.158-4.594-0.379-4.594-3.832c0-1.58,1.265-2.782,3.666-2.782c2.677,0,4.025,0.803,4.025,0.803l-0.863,2.169
		c0,0-1.245-0.801-2.783-0.801c-0.588,0-0.926,0.167-0.926,0.506c0,1.116,4.719,0.274,4.719,3.771c0,1.6-1.18,2.823-4.047,2.823
		c-2.735,0-3.918-0.928-3.918-0.928L69.27,46.009z"/>
</g>
<polygon fill="#12486A" points="13.442,66.728 11.082,66.728 5.016,59.354 5.016,66.728 1.979,66.728 1.979,54.087 4.341,54.087 
	10.408,61.333 10.408,54.087 13.442,54.087 "/>
<g>
	<defs>
		<rect id="SVGID_1_" width="76.348" height="67"/>
	</defs>
	<clipPath id="SVGID_6_">
		<use xlink:href="#SVGID_1_"  overflow="visible"/>
	</clipPath>
	<path clip-path="url(#SVGID_6_)" fill="#12486A" d="M23.34,65.905c0,0-1.115,1.094-3.412,1.094c-3.077,0-4.867-2.084-4.867-4.695
		c0-2.656,1.853-4.635,4.508-4.635c2.591,0,4.214,1.663,4.214,4.401c0,0.317-0.02,0.843-0.02,0.843h-5.772
		c0.167,1.202,0.883,1.707,2.148,1.707c1.285,0,2.168-0.674,2.168-0.674L23.34,65.905z M18.031,61.271h2.845
		c-0.042-0.843-0.528-1.412-1.391-1.412C18.77,59.858,18.22,60.322,18.031,61.271"/>
	<path clip-path="url(#SVGID_6_)" fill="#12486A" d="M25.992,57.878v-2.696h3.032v2.696h1.981v2.339h-1.981v3.35
		c0,0.484,0.254,0.779,0.802,0.779c0.441,0,0.779-0.253,0.779-0.253l0.821,2.065c-0.547,0.421-1.516,0.78-2.444,0.78
		c-2.171,0-2.99-1.393-2.99-3.226v-3.496h-1.454v-2.339H25.992z"/>
	<path clip-path="url(#SVGID_6_)" fill="#12486A" d="M42.738,66.728h-2.569l-1.16-3.94c-0.105-0.337-0.189-0.8-0.189-1.179h-0.127
		c0,0.379-0.105,0.842-0.212,1.179l-1.157,3.94h-2.549l-3.162-8.85h3.204l1.117,4.488c0.061,0.253,0.145,0.505,0.145,0.78h0.107
		c0-0.275,0.105-0.632,0.169-0.886l1.094-4.383h2.615l1.094,4.383c0.064,0.274,0.169,0.61,0.169,0.886h0.106
		c0-0.275,0.061-0.506,0.146-0.78l1.116-4.488h3.204L42.738,66.728z"/>
	<path clip-path="url(#SVGID_6_)" fill="#12486A" d="M50.906,66.938c-2.589,0-4.697-1.811-4.697-4.592
		c0-2.824,2.108-4.679,4.697-4.679c2.571,0,4.7,1.854,4.7,4.679C55.606,65.127,53.478,66.938,50.906,66.938 M52.634,62.303
		c0-1.349-0.675-2.253-1.728-2.253c-1.075,0-1.747,0.904-1.747,2.253c0,1.371,0.672,2.256,1.747,2.256
		C51.959,64.559,52.634,63.674,52.634,62.303"/>
	<path clip-path="url(#SVGID_6_)" fill="#12486A" d="M62.512,60.449h-0.463c-1.116,0-1.856,0.737-1.856,2v4.278H57.16v-8.85h1.834
		l0.486,1.2h0.125c0.505-0.821,1.262-1.2,2.443-1.2h0.463V60.449z"/>
</g>
<polygon fill="#12486A" points="72.706,57.878 69.819,61.733 72.875,66.728 69.229,66.728 67.417,63.735 66.847,64.472 
	66.847,66.728 63.815,66.728 63.815,53.981 66.847,53.981 66.847,61.145 69.124,57.878 "/>
</svg>
